
<svg width="100" height="90" viewBox="0 0 25 25" fill="none" xmlns="http://www.w3.org/2000/svg">
    <g id="computer">
    <path fill-rule="evenodd" clip-rule="evenodd"
          d="M0.5 3.12505C0.5 2.34266 0.81607 1.59232 1.37868 1.03908C1.94129 0.485851 2.70435 0.175049 3.5 0.175049H18.5C19.2956 0.175049 20.0587 0.485851 20.6213 1.03908C21.1839 1.59232 21.5 2.34266 21.5 3.12505V14.925C21.5 15.7074 21.1839 16.4578 20.6213 17.011C20.0587 17.5642 19.2956 17.875 18.5 17.875H15.17L15.3545 18.5963L16.5605 19.7822C16.7702 19.9885 16.913 20.2513 16.9709 20.5374C17.0287 20.8235 16.999 21.12 16.8855 21.3895C16.772 21.6589 16.5798 21.8893 16.3332 22.0514C16.0866 22.2134 15.7966 22.3 15.5 22.3H6.5C6.20337 22.3 5.91343 22.2134 5.66681 22.0514C5.4202 21.8893 5.22799 21.6589 5.11448 21.3895C5.00098 21.12 4.97127 20.8235 5.02912 20.5374C5.08698 20.2513 5.22979 19.9885 5.4395 19.7822L6.6455 18.5963L6.83 17.875H3.5C2.70435 17.875 1.94129 17.5642 1.37868 17.011C0.81607 16.4578 0.5 15.7074 0.5 14.925V3.12505ZM9.1565 13.45H3.5V3.12505H18.5V13.45H9.1565Z"
          fill="white"/>

</g>
</svg>